<svg id="svg" xmlns="http://www.w3.org/2000/svg" xmlns:xlink="http://www.w3.org/1999/xlink" width="400" height="400" viewBox="0, 0, 400,400"><g id="svgg"><path id="path0" d="M260.556 21.705 C 257.328 22.147,256.483 22.788,248.106 31.132 L 240.417 38.791 236.389 40.834 C 234.174 41.958,231.695 43.302,230.881 43.822 C 226.882 46.376,209.227 54.909,205.139 56.264 C 203.611 56.770,201.703 57.507,200.900 57.900 C 200.096 58.293,197.909 59.065,196.039 59.614 C 194.169 60.164,191.391 61.046,189.865 61.574 C 182.335 64.183,175.961 65.235,159.861 66.526 C 156.958 66.758,152.521 67.133,150.000 67.357 C 147.479 67.581,144.167 67.839,142.639 67.930 C 141.111 68.021,138.174 68.269,136.111 68.481 C 134.049 68.693,130.861 68.944,129.028 69.038 C 127.194 69.132,123.819 69.445,121.528 69.734 C 119.236 70.024,116.299 70.342,115.000 70.443 C 110.924 70.758,99.918 73.999,93.611 76.741 C 84.511 80.697,70.048 90.399,61.250 98.450 C 59.875 99.708,58.000 101.309,57.083 102.007 C 56.167 102.705,55.104 103.616,54.722 104.031 C 54.340 104.446,52.965 105.612,51.667 106.622 C 50.368 107.631,48.111 109.523,46.652 110.826 C 41.297 115.605,34.021 121.847,32.041 123.359 C 28.044 126.412,17.135 136.917,14.636 140.119 C 13.690 141.331,12.387 142.956,11.741 143.731 C 7.899 148.330,6.312 154.243,8.039 157.520 C 9.048 159.433,9.471 162.382,9.431 167.222 C 9.399 171.128,9.579 180.807,9.914 193.194 C 10.240 205.257,8.685 204.051,30.694 209.297 C 34.972 210.316,39.487 211.396,40.727 211.695 C 41.967 211.995,44.373 212.474,46.075 212.760 C 52.086 213.770,56.763 218.769,56.705 224.120 C 56.685 226.037,56.930 230.163,57.772 242.083 C 57.923 244.222,58.177 248.222,58.335 250.972 C 58.494 253.722,58.740 257.347,58.881 259.028 C 60.079 273.265,60.151 277.249,59.253 279.495 C 58.638 281.032,58.863 284.737,59.667 286.293 C 60.950 288.781,62.610 289.366,67.074 288.904 C 74.333 288.153,75.243 286.640,73.634 278.000 C 72.786 273.448,72.747 272.834,73.075 269.167 C 73.246 267.257,73.425 263.194,73.474 260.139 C 73.522 257.083,73.702 250.958,73.873 246.528 C 74.045 242.097,74.285 234.535,74.407 229.722 C 74.683 218.836,74.925 218.146,77.878 219.796 C 78.553 220.174,79.588 220.569,80.178 220.675 C 82.647 221.118,99.214 224.920,108.196 227.106 C 112.169 228.072,117.130 229.237,119.220 229.694 C 131.341 232.343,132.996 233.345,133.769 238.504 C 133.877 239.222,134.254 240.236,134.607 240.756 C 134.960 241.276,135.321 242.288,135.409 243.004 C 136.088 248.544,136.345 249.033,138.706 249.250 C 139.976 249.368,146.630 251.062,149.360 251.963 C 149.919 252.147,151.010 252.948,151.786 253.742 C 153.323 255.316,155.087 256.072,158.611 256.668 C 163.379 257.473,166.886 260.977,168.501 266.547 C 169.631 270.443,171.296 273.056,172.650 273.056 C 173.517 273.056,173.743 274.359,174.171 281.806 C 174.320 284.403,174.696 290.778,175.006 295.972 C 175.316 301.167,175.683 308.321,175.822 311.872 C 175.961 315.422,176.141 318.434,176.222 318.566 C 176.303 318.697,176.493 321.849,176.645 325.570 L 176.920 332.336 176.070 335.629 C 174.760 340.703,175.324 342.405,178.834 343.981 C 181.608 345.225,189.091 345.781,191.202 344.899 C 193.926 343.761,195.027 338.905,193.247 335.888 C 192.478 334.585,192.344 331.602,192.769 325.278 C 192.949 322.604,193.209 317.417,193.346 313.750 C 193.483 310.083,193.660 306.771,193.739 306.389 C 193.819 306.007,194.076 301.944,194.312 297.361 C 194.548 292.778,194.861 287.403,195.008 285.417 C 195.156 283.431,195.277 280.609,195.277 279.148 C 195.278 274.881,196.165 272.729,198.314 271.781 C 199.120 271.425,199.433 271.100,199.555 270.490 C 200.101 267.760,202.461 266.665,209.863 265.708 C 214.187 265.149,216.438 264.488,219.270 262.944 C 224.016 260.357,228.333 261.777,228.333 265.924 C 228.333 266.951,230.285 272.894,231.812 276.516 C 232.329 277.745,233.468 281.124,234.343 284.026 C 235.217 286.928,236.336 290.178,236.830 291.248 C 237.324 292.319,238.349 294.819,239.108 296.806 C 240.985 301.718,247.247 317.194,248.307 319.540 C 249.586 322.369,249.497 323.348,247.722 325.975 C 246.021 328.493,245.854 329.591,246.998 330.735 C 248.571 332.309,255.329 333.527,258.420 332.795 C 260.332 332.342,262.707 332.490,261.667 332.997 C 261.012 333.317,261.028 333.326,261.944 333.168 C 263.525 332.895,262.401 333.792,260.132 334.616 C 257.292 335.646,254.560 335.770,251.664 335.000 C 245.842 333.450,245.442 333.442,246.197 334.894 C 247.136 336.699,249.334 337.753,253.426 338.362 C 256.806 338.865,263.527 337.471,267.413 335.462 L 268.234 335.037 268.086 344.116 C 267.875 357.035,267.886 361.696,268.129 362.566 C 268.786 364.913,274.824 365.131,276.311 362.863 C 276.695 362.276,276.740 360.445,276.688 347.422 L 276.630 332.646 277.273 333.249 C 278.216 334.132,279.300 334.461,281.863 334.642 C 284.404 334.821,284.528 335.021,282.517 335.689 C 279.666 336.636,278.056 338.389,278.056 340.546 C 278.056 342.182,278.527 342.846,279.320 342.326 C 279.862 341.971,280.164 342.005,282.116 342.639 C 287.457 344.372,294.285 342.886,297.876 339.209 L 298.901 338.159 298.500 337.023 C 297.447 334.039,295.562 332.546,292.109 331.960 C 290.744 331.729,289.319 331.182,287.175 330.065 C 283.987 328.404,283.813 328.370,278.247 328.336 C 276.030 328.323,280.778 327.018,283.750 326.824 C 287.477 326.580,287.419 322.755,283.633 319.036 C 281.734 317.172,281.679 317.006,282.608 315.926 C 283.459 314.937,284.908 314.956,287.789 315.995 C 288.906 316.398,290.454 316.824,291.230 316.941 C 292.005 317.059,295.514 317.991,299.028 319.014 C 302.542 320.037,306.604 321.126,308.056 321.434 C 314.082 322.713,314.041 322.647,313.739 330.640 C 313.524 336.312,313.280 354.832,313.219 370.000 C 313.186 378.492,313.489 379.068,317.885 378.846 C 321.624 378.657,322.059 377.775,322.108 370.278 C 322.128 367.299,322.278 357.861,322.441 349.306 C 322.604 340.750,322.747 331.706,322.758 329.208 L 322.778 324.667 323.700 323.745 C 324.643 322.802,325.076 322.643,330.139 321.388 C 334.933 320.200,335.149 320.442,334.850 326.667 C 334.605 331.769,334.680 344.382,334.962 345.445 C 335.531 347.594,340.168 347.832,342.104 345.812 L 342.910 344.971 342.928 332.833 C 342.945 320.935,342.958 320.672,343.548 319.540 C 344.270 318.158,345.447 317.167,346.234 317.279 C 346.848 317.367,346.857 317.441,346.547 320.000 C 346.092 323.767,348.162 322.301,348.976 318.280 C 349.166 317.339,349.475 316.518,349.661 316.456 C 350.190 316.279,350.069 316.997,349.151 319.488 C 348.683 320.755,348.360 322.016,348.432 322.290 C 348.520 322.629,348.318 322.915,347.802 323.182 C 345.432 324.407,346.145 325.297,348.841 324.478 C 349.908 324.154,351.074 323.888,351.432 323.888 C 353.645 323.884,355.378 321.146,355.787 317.008 L 355.972 315.139 360.694 314.067 C 363.292 313.477,368.659 312.200,372.621 311.229 C 377.516 310.029,379.932 309.551,380.156 309.737 C 380.913 310.365,381.200 312.461,380.944 315.504 C 380.807 317.137,380.689 320.972,380.683 324.028 C 380.664 333.073,380.303 346.781,379.967 351.192 C 379.444 358.071,380.274 360.029,383.694 359.985 C 387.701 359.933,388.495 358.723,388.389 352.824 C 388.344 350.278,388.439 346.694,388.601 344.861 C 388.900 341.485,389.444 318.964,389.503 307.500 L 389.536 301.250 388.616 300.625 C 388.110 300.281,387.370 299.991,386.973 299.980 C 385.314 299.936,385.129 299.536,386.674 299.333 C 390.099 298.884,391.300 296.605,389.513 293.945 C 388.756 292.817,386.802 291.134,386.233 291.119 C 386.070 291.115,385.570 290.720,385.121 290.243 C 383.407 288.418,380.994 287.653,369.028 285.138 C 366.431 284.592,363.368 283.909,362.222 283.619 C 361.076 283.330,359.090 282.886,357.807 282.631 C 351.728 281.427,351.191 280.450,352.235 272.500 C 352.508 270.418,352.845 265.385,353.340 255.972 C 353.887 245.575,354.473 243.131,356.635 242.235 C 357.147 242.023,357.519 241.620,357.632 241.157 C 358.309 238.369,360.637 236.970,365.139 236.643 C 370.226 236.274,374.277 235.424,376.806 234.195 C 379.665 232.805,379.424 232.874,383.700 232.221 C 391.162 231.081,390.914 231.488,391.361 219.648 C 391.754 209.260,390.973 207.716,384.864 206.799 C 376.805 205.589,373.762 203.241,371.485 196.474 C 369.297 189.974,369.998 183.804,373.168 181.652 C 375.252 180.236,376.105 175.217,374.740 172.399 C 373.994 170.858,374.224 170.936,368.510 170.279 C 365.892 169.978,361.625 169.422,359.028 169.044 C 356.431 168.665,352.681 168.157,350.694 167.916 C 348.708 167.674,345.271 167.172,343.056 166.800 C 340.840 166.427,337.840 165.985,336.389 165.817 C 332.547 165.372,325.125 164.218,323.194 163.765 C 322.278 163.550,320.384 163.312,318.987 163.235 C 312.323 162.869,310.644 159.477,314.199 153.566 C 315.490 151.420,315.659 149.997,314.796 148.535 C 314.495 148.024,314.157 147.119,314.045 146.521 C 313.375 142.948,310.308 141.167,306.075 141.893 C 302.659 142.479,301.918 142.058,300.647 138.814 C 300.215 137.711,299.432 136.245,298.907 135.557 C 297.837 134.154,296.004 130.363,294.877 127.224 C 294.466 126.079,293.383 123.476,292.471 121.440 C 291.558 119.403,290.432 116.778,289.969 115.605 C 288.956 113.043,284.490 102.438,282.226 97.222 C 281.332 95.160,280.097 92.160,279.484 90.556 C 278.386 87.685,274.397 78.122,272.937 74.861 C 270.385 69.161,268.720 64.156,268.959 62.907 C 269.144 61.939,268.640 62.171,268.011 63.344 C 267.147 64.955,267.452 66.868,269.179 70.678 C 269.647 71.708,270.594 74.071,271.285 75.929 C 271.976 77.786,272.964 80.306,273.481 81.528 C 273.998 82.750,275.295 86.139,276.364 89.060 C 278.480 94.841,280.598 100.220,281.875 103.056 C 282.323 104.049,283.103 106.111,283.609 107.639 C 284.115 109.167,285.458 112.854,286.594 115.833 C 287.730 118.813,289.085 122.408,289.604 123.824 C 290.124 125.240,290.786 126.865,291.076 127.435 C 291.872 129.002,292.995 132.763,293.889 136.850 C 295.176 142.740,296.133 144.087,298.806 143.767 C 299.692 143.661,300.792 143.573,301.250 143.570 C 301.708 143.568,303.771 143.440,305.833 143.286 C 310.894 142.909,311.445 143.092,312.675 145.556 C 314.276 148.765,314.207 150.420,312.302 154.434 C 309.678 159.964,311.575 163.655,317.309 164.175 C 318.712 164.302,321.549 164.656,323.611 164.961 C 325.674 165.266,328.299 165.599,329.444 165.701 C 330.590 165.804,332.346 166.056,333.347 166.261 C 335.253 166.653,344.385 168.094,348.194 168.604 C 349.417 168.767,351.979 169.148,353.889 169.449 C 355.799 169.750,360.174 170.381,363.611 170.851 C 370.231 171.757,372.998 172.324,373.809 172.939 C 374.629 173.561,372.406 173.433,368.530 172.636 C 364.225 171.750,357.708 170.686,352.361 169.996 C 350.069 169.700,346.882 169.215,345.278 168.917 C 343.674 168.619,341.049 168.237,339.444 168.067 C 337.840 167.897,334.340 167.449,331.667 167.071 C 328.993 166.694,324.485 166.082,321.648 165.711 C 317.747 165.202,316.093 164.862,314.856 164.315 C 312.428 163.241,312.202 163.523,314.067 165.300 C 316.519 167.637,321.736 169.444,326.026 169.444 C 326.869 169.444,328.264 169.625,329.127 169.847 C 329.989 170.068,332.819 170.563,335.417 170.947 C 338.014 171.331,341.389 171.837,342.917 172.072 C 344.444 172.306,347.418 172.643,349.525 172.821 C 353.697 173.173,354.036 173.446,350.827 173.870 C 349.685 174.021,347.250 174.349,345.417 174.600 C 334.931 176.036,332.291 176.231,329.206 175.802 C 324.846 175.195,320.545 175.344,318.056 176.187 C 314.519 177.385,309.727 178.134,306.536 177.987 C 304.860 177.911,302.754 178.015,301.250 178.249 C 299.875 178.463,296.688 178.878,294.167 179.170 C 287.562 179.936,280.716 181.041,278.490 181.700 C 274.966 182.742,272.690 183.059,266.806 183.327 C 263.567 183.475,259.452 183.845,257.554 184.160 C 255.674 184.472,250.793 185.160,246.707 185.689 C 238.899 186.701,237.421 186.968,232.917 188.183 C 230.269 188.898,223.007 189.553,218.226 189.509 C 214.997 189.480,212.337 184.213,214.390 181.915 L 215.232 180.973 211.852 180.498 C 205.162 179.559,202.098 179.885,200.791 181.676 L 200.139 182.570 196.806 182.400 C 194.972 182.307,191.347 181.909,188.750 181.517 C 186.153 181.125,182.430 180.591,180.477 180.330 C 175.767 179.702,176.016 179.303,181.111 179.314 C 184.531 179.322,185.659 179.443,188.581 180.116 C 192.955 181.124,195.827 181.030,201.528 179.694 C 207.514 178.290,213.451 178.456,215.501 180.083 C 216.841 181.147,217.641 176.261,216.697 172.778 C 215.460 168.210,213.729 166.050,211.042 165.718 C 210.316 165.629,209.160 165.485,208.472 165.400 C 207.006 165.217,206.877 164.897,208.097 164.472 C 210.350 163.686,212.200 164.429,215.266 167.350 C 217.821 169.783,217.764 169.758,217.595 168.403 C 217.390 166.760,218.418 165.049,220.222 164.028 C 221.032 163.569,223.708 161.901,226.168 160.320 C 230.858 157.308,235.016 154.717,238.750 152.481 C 242.193 150.419,247.828 149.347,263.472 147.776 C 268.056 147.316,273.681 146.694,275.972 146.395 C 278.264 146.095,281.826 145.722,283.889 145.564 C 288.909 145.181,295.652 144.121,294.722 143.861 C 293.492 143.517,288.523 143.608,286.806 144.006 C 284.803 144.470,281.404 144.894,276.528 145.286 C 274.542 145.446,272.042 145.701,270.972 145.852 C 269.903 146.003,266.590 146.371,263.611 146.670 C 260.632 146.968,256.944 147.390,255.417 147.609 C 250.192 148.355,243.750 149.138,236.944 149.854 C 204.930 153.225,207.257 152.672,206.104 157.185 C 205.472 159.660,204.114 160.175,200.462 159.323 C 197.862 158.716,183.635 157.361,179.861 157.361 C 175.706 157.361,175.020 157.617,173.716 159.654 C 173.183 160.489,171.792 162.064,170.626 163.155 C 167.719 165.876,166.321 167.298,163.899 169.995 C 162.758 171.266,161.336 172.659,160.739 173.092 C 160.020 173.613,159.781 173.925,160.034 174.015 C 160.245 174.090,162.354 174.887,164.722 175.785 C 167.090 176.684,169.715 177.639,170.556 177.906 C 171.396 178.173,174.146 179.372,176.667 180.570 C 186.344 185.169,191.548 186.041,197.359 184.038 L 200.135 183.081 199.026 184.030 C 195.554 187.000,186.584 186.464,178.247 182.789 C 176.537 182.036,173.326 180.710,171.111 179.842 C 168.896 178.975,166.235 177.839,165.199 177.319 C 160.389 174.903,157.698 175.035,155.976 177.769 C 155.546 178.452,154.025 180.232,152.597 181.725 C 150.045 184.392,149.522 185.272,150.486 185.283 C 152.174 185.302,162.311 186.491,168.472 187.392 C 170.472 187.685,172.295 187.780,173.750 187.669 C 174.972 187.575,176.972 187.440,178.194 187.370 L 180.417 187.242 178.889 187.647 C 175.439 188.562,168.801 188.443,162.719 187.358 C 161.453 187.132,157.729 186.692,154.444 186.380 C 148.102 185.777,147.751 185.675,146.561 184.081 C 145.871 183.157,145.822 181.049,146.463 179.861 C 146.711 179.403,152.428 173.465,159.168 166.667 C 165.908 159.868,172.759 152.872,174.392 151.119 C 176.025 149.366,179.924 145.414,183.056 142.336 C 189.835 135.674,187.780 137.754,204.437 120.694 C 211.896 113.056,220.167 104.786,222.818 102.317 C 225.470 99.848,228.014 97.294,228.472 96.642 C 229.240 95.550,241.647 82.957,268.680 55.833 C 285.610 38.846,293.661 30.572,295.398 28.376 C 296.578 26.883,297.599 25.961,299.200 24.945 C 302.795 22.663,302.780 22.656,293.333 22.230 C 276.956 21.491,263.671 21.278,260.556 21.705 M293.459 33.906 C 290.411 36.960,287.438 39.791,286.854 40.198 C 286.269 40.605,285.548 41.414,285.251 41.996 C 284.955 42.578,283.456 44.273,281.922 45.763 C 280.388 47.253,278.117 49.597,276.875 50.972 C 274.758 53.318,280.342 47.932,292.708 35.704 C 297.550 30.917,299.435 28.787,299.116 28.468 C 299.053 28.405,296.508 30.852,293.459 33.906 M195.006 84.989 C 194.189 86.515,183.333 96.852,183.333 96.104 C 183.333 95.015,188.922 89.222,193.042 86.042 C 195.353 84.257,195.416 84.224,195.006 84.989 M278.291 89.375 C 280.097 93.473,281.911 97.823,286.662 109.444 C 294.393 128.360,295.074 129.949,296.114 131.488 C 296.573 132.169,297.556 134.088,298.297 135.752 C 299.903 139.356,300.855 140.926,302.198 142.184 L 303.194 143.118 302.323 142.679 C 300.860 141.943,299.281 139.845,297.628 136.441 C 296.761 134.655,295.678 132.639,295.221 131.960 C 294.765 131.282,294.040 129.782,293.611 128.627 C 292.452 125.506,284.344 105.433,283.037 102.447 C 282.414 101.025,281.490 98.736,280.984 97.361 C 280.478 95.986,279.285 92.924,278.334 90.556 C 277.383 88.188,276.543 86.094,276.467 85.903 C 276.391 85.712,276.392 85.556,276.468 85.556 C 276.545 85.556,277.365 87.274,278.291 89.375 M225.691 102.541 C 225.234 102.870,224.053 104.151,223.065 105.389 L 221.269 107.639 222.903 106.188 C 223.802 105.390,225.017 104.158,225.602 103.450 C 227.016 101.739,227.032 101.576,225.691 102.541 M207.884 120.804 C 200.874 127.816,192.576 136.258,189.444 139.564 C 186.313 142.870,183.073 146.102,182.246 146.746 C 179.399 148.961,175.267 152.825,174.820 153.690 C 174.490 154.328,175.281 153.748,177.811 151.494 C 179.702 149.810,181.769 148.143,182.404 147.791 C 183.141 147.381,184.136 146.363,185.163 144.967 C 186.046 143.766,187.215 142.480,187.760 142.108 C 189.095 141.198,192.465 137.834,196.667 133.218 C 200.402 129.113,207.777 121.672,209.186 120.583 C 209.661 120.217,210.741 118.998,211.586 117.875 C 212.431 116.752,213.236 115.833,213.374 115.833 C 213.783 115.833,218.140 111.531,219.557 109.727 C 220.279 108.807,220.816 108.056,220.750 108.056 C 220.684 108.056,214.894 113.792,207.884 120.804 M182.583 149.268 C 177.515 152.583,174.274 156.013,175.496 156.769 C 176.114 157.151,183.702 150.316,184.612 148.556 C 184.833 148.128,184.980 147.778,184.937 147.778 C 184.895 147.778,183.836 148.448,182.583 149.268 M15.005 159.592 C 16.001 159.946,18.188 160.491,19.866 160.803 C 28.253 162.362,41.178 164.733,42.778 165.006 C 43.771 165.175,48.896 166.125,54.167 167.117 C 59.438 168.109,67.563 169.598,72.222 170.426 C 76.882 171.254,83.194 172.436,86.250 173.054 C 89.306 173.671,93.268 174.426,95.056 174.731 C 96.844 175.037,100.594 175.839,103.390 176.515 C 108.936 177.855,109.440 177.954,121.250 180.009 C 125.681 180.780,130.868 181.709,132.778 182.074 C 134.688 182.438,137.798 182.937,139.690 183.182 C 143.461 183.670,145.355 184.331,146.547 185.576 C 147.349 186.412,147.217 186.722,146.381 185.965 C 145.647 185.301,143.136 184.522,140.556 184.159 C 136.605 183.603,133.608 183.105,130.694 182.523 C 117.700 179.925,114.455 179.322,111.673 178.989 C 108.002 178.549,104.088 177.844,83.472 173.912 C 80.264 173.300,74.951 172.351,71.667 171.803 C 64.675 170.635,55.680 168.983,49.028 167.645 C 46.431 167.123,43.681 166.616,42.917 166.520 C 35.878 165.631,18.420 162.278,15.988 161.347 C 14.548 160.796,11.332 158.310,12.639 158.758 C 12.944 158.863,14.009 159.238,15.005 159.592 M15.313 164.348 C 15.523 164.601,16.069 164.971,16.528 165.171 C 17.053 165.399,17.179 165.538,16.868 165.545 C 16.298 165.557,15.723 166.832,15.996 167.478 C 16.203 167.970,16.716 186.454,16.770 195.417 C 16.804 200.919,16.841 201.310,17.425 202.299 C 17.946 203.179,17.967 203.306,17.561 203.088 C 15.890 202.194,15.500 200.578,15.587 194.902 C 15.739 184.873,15.257 169.733,14.697 166.970 C 14.024 163.651,14.181 162.984,15.313 164.348 M23.472 166.665 C 35.123 168.687,39.736 169.518,42.778 170.144 C 52.608 172.164,60.511 173.291,65.051 173.320 C 67.377 173.335,68.887 173.724,68.421 174.190 C 68.233 174.379,67.559 174.376,66.362 174.182 C 64.152 173.823,63.056 173.812,63.056 174.147 C 63.056 174.486,65.287 174.920,68.818 175.268 C 70.383 175.423,73.883 175.979,76.596 176.504 C 86.801 178.481,90.523 179.165,94.167 179.732 C 96.229 180.054,99.542 180.700,101.528 181.169 C 105.053 182.000,105.941 182.072,110.972 181.928 C 112.937 181.871,128.365 184.562,137.778 186.602 C 141.220 187.348,139.295 187.292,135.271 186.529 C 115.758 182.828,111.755 182.193,110.649 182.619 C 109.749 182.965,110.851 183.327,114.097 183.750 C 115.739 183.964,119.771 184.647,123.056 185.267 C 126.340 185.887,131.403 186.824,134.306 187.348 C 137.208 187.873,141.771 188.752,144.444 189.302 C 147.118 189.852,150.931 190.612,152.917 190.991 C 154.903 191.370,156.778 191.794,157.083 191.932 C 158.179 192.430,156.503 192.247,152.145 191.395 C 149.820 190.940,146.104 190.307,143.889 189.989 C 141.674 189.672,138.424 189.098,136.667 188.715 C 134.910 188.332,131.910 187.775,130.000 187.477 C 128.090 187.179,124.278 186.506,121.528 185.980 C 118.778 185.455,114.090 184.575,111.111 184.024 C 108.132 183.474,103.759 182.643,101.394 182.177 C 99.029 181.711,95.404 181.037,93.339 180.678 C 89.449 180.003,81.768 178.565,72.639 176.804 C 69.736 176.244,66.361 175.618,65.139 175.413 C 56.450 173.957,41.880 171.153,37.778 170.147 C 36.326 169.791,33.764 169.289,32.083 169.033 C 27.404 168.318,21.407 167.017,19.861 166.380 C 18.305 165.740,18.010 165.717,23.472 166.665 M160.932 167.940 C 160.673 168.334,159.201 169.695,157.661 170.964 C 152.829 174.944,148.056 180.214,148.056 181.569 C 148.056 181.960,149.810 180.109,151.826 177.591 C 153.081 176.022,154.706 174.403,156.053 173.378 C 158.329 171.645,160.335 169.583,161.196 168.091 C 161.800 167.045,161.595 166.927,160.932 167.940 M324.722 171.099 C 320.465 171.259,320.111 171.418,321.162 172.697 C 321.362 172.940,321.231 173.085,320.684 173.222 C 317.011 174.144,330.809 175.481,336.107 174.717 C 338.221 174.412,342.321 173.339,342.124 173.143 C 342.065 173.084,339.609 172.666,336.665 172.215 C 333.721 171.763,330.860 171.268,330.309 171.115 C 329.757 170.962,329.181 170.862,329.028 170.893 C 328.875 170.924,326.938 171.017,324.722 171.099 M368.738 174.425 C 369.025 174.890,368.437 175.000,364.148 175.288 C 361.820 175.444,359.403 175.686,358.777 175.825 C 357.474 176.114,339.928 178.626,334.722 179.268 C 330.824 179.749,325.771 180.463,317.778 181.662 C 314.799 182.109,310.924 182.615,309.167 182.787 C 307.410 182.959,304.410 183.394,302.500 183.753 C 300.590 184.112,297.715 184.548,296.111 184.721 C 294.507 184.895,292.069 185.210,290.694 185.422 C 285.579 186.210,264.643 189.171,258.472 189.979 C 254.958 190.440,248.646 191.311,244.444 191.915 C 240.243 192.520,234.681 193.278,232.083 193.600 C 229.486 193.922,225.861 194.429,224.028 194.726 C 222.194 195.023,219.257 195.398,217.500 195.560 C 215.743 195.721,212.368 196.153,210.000 196.521 C 201.918 197.775,200.881 197.856,199.039 197.376 C 196.986 196.841,194.575 196.836,190.972 197.358 C 189.444 197.579,188.109 197.764,188.005 197.769 C 187.901 197.774,187.838 199.559,187.866 201.736 C 187.931 206.903,187.321 208.517,184.963 209.408 C 183.984 209.777,183.692 211.190,183.491 216.528 C 183.211 223.924,182.500 223.634,182.500 216.123 C 182.500 211.617,182.909 210.105,184.460 208.877 C 186.917 206.930,187.822 201.973,186.518 197.601 C 186.200 196.535,190.141 196.018,198.082 196.083 C 201.095 196.108,203.082 195.982,204.609 195.671 C 205.847 195.419,209.351 195.122,212.639 194.990 C 216.155 194.849,219.741 194.536,221.667 194.202 C 223.424 193.897,226.611 193.444,228.750 193.194 C 230.889 192.945,233.514 192.566,234.583 192.352 C 235.653 192.138,238.278 191.764,240.417 191.522 C 242.556 191.280,247.681 190.582,251.806 189.971 C 255.931 189.360,262.681 188.426,266.806 187.895 C 270.931 187.364,276.368 186.628,278.889 186.260 C 281.410 185.892,284.785 185.451,286.389 185.281 C 287.993 185.111,292.743 184.427,296.944 183.761 C 301.146 183.095,306.396 182.291,308.611 181.974 C 312.654 181.395,313.801 181.213,322.778 179.723 C 332.878 178.046,351.733 175.508,361.806 174.470 C 364.962 174.144,368.550 174.121,368.738 174.425 M369.157 189.792 C 369.151 189.983,368.986 190.429,368.790 190.783 C 368.482 191.337,368.520 191.609,369.060 192.738 C 369.947 194.591,370.833 197.954,370.833 199.464 C 370.833 200.577,370.929 200.788,371.564 201.077 C 372.723 201.605,372.163 201.726,369.967 201.422 C 367.543 201.086,367.291 201.198,368.878 201.909 C 369.769 202.307,370.186 202.718,370.566 203.565 C 371.210 205.003,372.674 205.761,376.764 206.773 C 378.981 207.321,380.053 207.739,380.820 208.356 C 381.671 209.040,382.408 209.292,384.824 209.728 C 388.741 210.435,390.060 211.275,389.588 212.764 C 389.023 214.542,385.163 213.518,381.603 210.643 C 379.846 209.224,379.007 208.761,377.149 208.181 C 367.116 205.052,365.573 203.737,363.473 196.528 L 362.745 194.028 363.488 193.472 C 363.896 193.167,365.227 192.135,366.445 191.181 C 368.696 189.416,369.174 189.171,369.157 189.792 M211.404 192.343 C 210.747 193.134,202.403 194.482,195.608 194.895 C 190.965 195.177,191.865 194.193,196.667 193.738 C 197.660 193.644,200.535 193.268,203.056 192.904 C 210.801 191.783,211.932 191.707,211.404 192.343 M337.625 209.971 C 337.274 210.300,330.856 211.521,325.833 212.213 C 323.618 212.518,321.243 212.885,320.556 213.027 C 319.868 213.170,317.306 213.436,314.861 213.618 C 309.169 214.042,307.923 214.254,308.871 214.638 C 309.381 214.844,308.522 214.952,305.399 215.074 C 301.575 215.224,298.217 215.768,300.819 215.816 C 301.586 215.830,301.708 215.903,301.430 216.181 C 301.006 216.605,296.225 216.614,295.802 216.191 C 295.491 215.880,298.613 215.232,302.917 214.714 C 304.292 214.548,307.292 214.051,309.583 213.610 C 311.875 213.168,315.625 212.541,317.917 212.217 C 320.208 211.893,323.708 211.311,325.694 210.924 C 331.059 209.878,338.342 209.296,337.625 209.971 M55.254 213.192 C 55.776 213.456,57.943 214.035,60.069 214.478 C 62.196 214.921,64.154 215.400,64.420 215.542 C 64.686 215.685,66.510 216.121,68.473 216.512 C 72.021 217.218,73.333 217.736,73.333 218.432 C 73.333 219.033,73.039 219.147,72.263 218.847 C 70.872 218.308,62.082 216.044,60.556 215.830 C 57.574 215.414,55.317 214.566,54.097 213.402 C 53.224 212.570,52.968 211.538,53.819 212.285 C 54.087 212.519,54.732 212.927,55.254 213.192 M355.972 212.351 C 357.500 212.569,359.875 213.012,361.250 213.334 C 366.527 214.574,372.067 215.281,373.742 214.930 C 376.292 214.395,376.388 215.547,373.981 217.804 C 371.694 219.948,370.144 220.399,360.224 221.805 C 358.649 222.028,356.278 222.451,354.953 222.743 C 353.629 223.036,351.067 223.481,349.259 223.733 C 347.451 223.984,344.910 224.428,343.611 224.718 C 342.313 225.008,339.500 225.505,337.361 225.823 C 335.222 226.140,332.222 226.647,330.694 226.950 C 329.167 227.254,326.229 227.746,324.167 228.044 C 322.104 228.342,318.917 228.895,317.083 229.273 C 315.250 229.650,312.688 230.097,311.389 230.265 C 310.090 230.434,307.965 230.810,306.667 231.101 C 305.368 231.392,302.931 231.834,301.250 232.082 C 298.461 232.495,295.272 233.047,283.611 235.138 C 281.396 235.535,277.583 236.159,275.139 236.524 C 272.694 236.889,269.819 237.377,268.750 237.609 C 267.681 237.840,264.868 238.344,262.500 238.727 C 257.325 239.566,249.891 240.854,244.588 241.831 C 242.452 242.225,239.077 242.775,237.088 243.054 C 233.788 243.517,224.253 245.314,223.016 245.707 C 222.578 245.846,222.500 245.719,222.500 244.866 C 222.500 242.090,220.748 240.832,215.317 239.706 C 211.785 238.974,209.671 239.012,207.024 239.858 C 203.913 240.851,199.611 240.099,192.671 237.347 C 188.946 235.870,184.647 231.013,185.816 229.604 C 186.961 228.224,195.539 227.426,195.780 228.677 C 195.856 229.071,195.737 229.100,194.962 228.878 C 191.883 227.995,185.964 230.663,187.408 232.283 C 191.257 236.598,202.100 240.166,206.963 238.717 C 208.864 238.151,212.739 238.315,216.111 239.103 C 220.129 240.042,220.533 240.094,219.802 239.581 C 218.899 238.947,217.303 238.427,212.589 237.231 C 205.996 235.557,205.830 235.105,212.173 236.100 C 214.204 236.418,216.125 236.895,216.895 237.271 C 218.198 237.908,229.167 238.306,229.167 237.717 C 229.167 237.439,225.208 236.283,221.312 235.424 C 216.730 234.414,215.991 234.061,218.223 233.949 C 220.062 233.857,222.417 234.303,226.111 235.441 C 227.913 235.996,229.064 236.169,230.972 236.170 C 235.445 236.172,242.558 235.780,242.318 235.544 C 241.958 235.191,238.287 234.213,234.583 233.484 C 230.550 232.690,229.504 232.329,229.947 231.887 C 230.182 231.652,231.660 231.869,235.756 232.739 C 240.910 233.834,241.577 233.912,246.528 234.002 L 251.806 234.097 249.722 233.432 C 248.576 233.066,245.940 232.402,243.863 231.957 C 240.126 231.157,237.604 230.342,238.750 230.306 C 239.884 230.270,245.109 231.122,247.856 231.791 C 252.085 232.821,252.594 232.855,256.624 232.381 C 258.662 232.141,261.100 231.937,262.040 231.927 C 264.331 231.903,263.691 231.664,257.504 230.233 C 249.907 228.475,249.440 227.656,256.745 228.902 C 258.579 229.215,260.468 229.684,260.942 229.944 C 261.667 230.341,262.677 230.421,267.222 230.442 C 273.591 230.471,273.525 230.305,266.554 228.751 C 264.248 228.237,261.861 227.629,261.250 227.400 L 260.139 226.984 261.321 226.964 C 263.125 226.934,268.024 227.732,269.583 228.309 C 271.814 229.135,273.480 229.234,277.269 228.767 C 279.203 228.528,281.640 228.320,282.684 228.303 L 284.583 228.272 281.944 227.633 C 280.493 227.282,277.837 226.661,276.042 226.254 C 274.247 225.846,272.778 225.379,272.778 225.215 C 272.778 224.683,277.968 225.195,280.335 225.960 C 284.036 227.157,287.786 227.418,291.659 226.748 C 292.662 226.575,292.653 226.572,283.389 224.196 C 282.274 223.910,281.284 223.599,281.190 223.505 C 280.608 222.923,286.282 223.753,289.028 224.651 C 291.026 225.305,291.643 225.375,295.139 225.345 C 303.310 225.275,305.000 225.217,305.000 225.010 C 305.000 224.773,302.648 224.090,300.278 223.639 C 295.811 222.788,294.406 222.417,293.830 221.937 L 293.194 221.407 294.217 221.398 C 294.780 221.393,296.668 221.757,298.414 222.207 C 303.600 223.544,304.923 223.699,309.119 223.457 L 312.917 223.239 310.694 222.729 C 301.288 220.572,300.060 220.156,303.750 220.378 C 305.099 220.460,306.846 220.805,308.194 221.257 C 311.167 222.253,315.024 222.447,319.702 221.835 C 324.383 221.222,324.397 221.271,319.261 220.297 C 316.226 219.722,314.048 218.849,315.202 218.670 C 315.543 218.617,317.497 218.957,319.546 219.426 C 322.676 220.142,323.842 220.277,326.844 220.274 C 332.080 220.267,332.672 219.723,328.180 219.044 C 325.011 218.566,322.500 217.878,322.500 217.489 C 322.500 217.043,324.155 217.196,327.222 217.927 C 330.976 218.820,335.048 219.074,338.390 218.622 C 341.416 218.213,342.206 217.912,340.968 217.637 C 338.973 217.195,339.624 217.075,344.722 216.944 C 349.944 216.811,350.760 216.661,348.536 216.244 C 346.261 215.817,347.371 215.554,351.581 215.524 C 353.996 215.506,357.597 215.413,359.583 215.316 L 363.194 215.139 361.806 214.657 C 360.582 214.232,356.585 213.473,352.746 212.935 C 352.041 212.836,351.228 212.577,350.940 212.359 C 350.221 211.814,352.190 211.811,355.972 212.351 M192.030 218.274 C 192.710 219.026,193.258 220.514,193.857 223.233 C 194.155 224.587,194.490 225.928,194.603 226.213 C 194.786 226.680,194.743 226.697,194.163 226.387 C 193.724 226.152,192.898 226.099,191.552 226.221 C 190.469 226.319,188.451 226.475,187.068 226.568 L 184.553 226.737 183.789 225.828 C 182.558 224.366,183.348 224.139,186.250 225.122 C 186.556 225.226,186.345 225.054,185.781 224.741 C 181.675 222.457,184.482 217.866,190.026 217.797 C 191.183 217.783,191.695 217.905,192.030 218.274 M376.225 218.584 C 376.643 219.046,376.978 219.093,378.907 218.961 C 382.344 218.725,380.930 220.289,377.317 220.720 C 376.577 220.808,375.398 221.115,374.696 221.401 C 373.031 222.081,371.551 222.403,368.331 222.785 C 366.881 222.957,365.069 223.271,364.306 223.482 C 362.535 223.973,349.989 226.236,345.972 226.790 C 344.292 227.021,342.490 227.335,341.968 227.488 C 341.447 227.640,339.322 228.020,337.246 228.331 C 333.301 228.922,329.243 229.575,319.028 231.260 C 308.940 232.925,299.541 234.416,295.417 235.006 C 293.278 235.312,289.528 235.933,287.083 236.386 C 280.202 237.661,274.658 238.594,270.556 239.167 C 268.493 239.455,265.556 239.940,264.028 240.245 C 260.546 240.938,253.279 242.151,249.444 242.678 C 247.840 242.898,245.090 243.377,243.333 243.741 C 241.576 244.106,239.139 244.543,237.917 244.713 C 236.694 244.883,234.007 245.329,231.944 245.704 C 214.644 248.850,213.611 248.991,213.611 248.212 C 213.611 247.482,215.291 247.128,222.222 246.394 C 225.772 246.019,230.767 245.213,238.611 243.749 C 242.201 243.079,246.639 242.269,248.472 241.948 C 250.306 241.627,252.681 241.194,253.750 240.985 C 254.819 240.777,256.812 240.472,258.177 240.309 C 259.542 240.145,262.042 239.758,263.733 239.449 C 265.423 239.140,269.368 238.462,272.500 237.943 C 297.281 233.830,302.431 232.945,305.278 232.305 C 306.271 232.082,309.021 231.610,311.389 231.255 C 316.748 230.452,321.313 229.691,327.222 228.615 C 329.743 228.156,334.493 227.339,337.778 226.800 C 341.063 226.261,347.563 225.134,352.222 224.295 C 356.882 223.457,362.569 222.457,364.861 222.073 C 372.452 220.803,372.826 220.689,373.998 219.287 C 375.138 217.924,375.519 217.803,376.225 218.584 M62.319 219.859 C 63.149 220.688,63.403 222.207,63.267 225.521 C 63.031 231.258,62.088 231.982,62.075 226.435 C 62.067 222.786,61.922 222.189,60.729 220.880 C 59.802 219.864,61.337 218.877,62.319 219.859 M138.741 240.833 C 140.889 241.933,141.405 242.085,143.022 242.098 C 144.034 242.106,145.486 242.320,146.250 242.574 C 147.697 243.055,164.590 246.877,168.484 247.605 C 169.713 247.834,173.526 248.729,176.957 249.594 C 180.387 250.458,186.441 251.818,190.408 252.616 L 197.622 254.067 198.578 253.418 C 199.910 252.515,200.939 252.866,201.988 254.583 L 202.498 255.417 202.499 254.153 C 202.500 253.458,202.632 252.757,202.794 252.595 C 204.068 251.321,202.888 244.253,201.079 242.327 L 200.519 241.731 201.718 241.866 C 202.377 241.940,204.437 241.738,206.295 241.417 C 209.697 240.829,211.805 240.691,212.616 241.002 C 213.199 241.225,213.175 241.599,212.569 241.737 C 212.302 241.798,213.458 241.943,215.139 242.058 C 219.887 242.386,221.403 243.013,220.475 244.267 C 220.169 244.681,220.016 244.658,218.750 244.001 C 217.265 243.230,215.420 243.202,207.681 243.834 C 204.023 244.132,204.065 244.048,204.304 250.549 C 204.523 256.507,204.429 256.868,202.778 256.387 C 202.243 256.231,199.493 255.663,196.667 255.123 C 193.840 254.584,187.903 253.277,183.472 252.219 C 179.042 251.162,172.604 249.716,169.167 249.007 C 162.465 247.624,153.395 245.504,152.165 245.033 C 151.751 244.875,149.376 244.370,146.887 243.912 C 139.017 242.463,135.833 241.248,135.833 239.695 C 135.833 239.334,135.737 239.296,138.741 240.833 M331.922 242.676 C 333.784 243.048,334.385 245.716,334.730 255.139 C 334.876 259.111,335.197 264.075,335.445 266.169 C 336.754 277.235,335.062 280.754,328.333 280.960 C 326.331 281.021,323.886 281.447,318.194 282.724 C 314.069 283.650,310.194 284.491,309.583 284.593 C 308.972 284.695,305.410 285.448,301.667 286.268 C 289.798 288.866,285.588 289.559,284.985 289.015 C 283.628 287.786,283.069 283.400,283.571 277.917 C 283.740 276.083,283.951 270.083,284.041 264.583 C 284.273 250.401,284.674 249.145,288.976 249.129 C 291.538 249.119,300.491 247.680,307.778 246.106 C 309.840 245.661,312.574 245.169,313.853 245.013 C 315.133 244.857,318.129 244.347,320.512 243.879 C 326.696 242.665,330.083 242.308,331.922 242.676 M146.667 245.149 C 149.951 245.967,154.389 247.023,156.528 247.497 C 161.804 248.666,174.355 251.671,188.750 255.212 C 195.319 256.828,201.181 258.223,201.776 258.311 C 202.586 258.432,203.069 258.734,203.698 259.513 C 204.710 260.764,204.574 261.011,203.191 260.433 C 201.665 259.796,201.466 259.899,202.379 260.855 L 203.194 261.709 202.500 261.553 C 201.396 261.305,188.642 258.918,183.611 258.018 C 181.090 257.567,176.403 256.633,173.194 255.943 C 169.986 255.253,165.174 254.259,162.500 253.735 C 159.826 253.210,156.264 252.346,154.583 251.813 C 152.903 251.281,150.403 250.649,149.028 250.409 C 145.144 249.732,140.668 248.617,140.099 248.186 C 138.935 247.304,140.915 247.655,153.472 250.557 C 155.458 251.016,159.766 251.958,163.045 252.650 C 166.324 253.342,170.961 254.339,173.351 254.865 C 175.740 255.391,180.995 256.380,185.028 257.062 C 189.061 257.745,193.236 258.485,194.306 258.708 C 196.744 259.215,200.575 259.549,200.000 259.204 C 199.290 258.777,192.562 256.992,188.333 256.109 C 186.118 255.646,182.681 254.837,180.694 254.311 C 178.708 253.785,175.083 252.919,172.639 252.387 C 170.194 251.856,165.382 250.738,161.944 249.905 C 158.507 249.071,152.673 247.684,148.980 246.823 C 142.767 245.373,139.155 244.251,138.472 243.558 C 138.034 243.113,140.094 243.513,146.667 245.149 M271.949 255.257 C 272.191 255.955,272.357 260.050,272.505 269.028 C 272.620 276.056,272.803 282.993,272.910 284.444 C 273.207 288.452,272.382 296.111,271.654 296.111 C 271.223 296.111,270.245 292.937,269.839 290.217 C 269.503 287.972,269.452 284.715,269.554 272.142 C 269.669 258.022,269.798 255.304,270.452 253.335 C 270.633 252.792,271.461 253.856,271.949 255.257 M268.497 253.824 C 268.711 253.968,268.737 256.330,268.586 261.944 C 268.150 278.147,268.199 288.739,268.725 292.179 C 268.990 293.912,269.148 295.389,269.075 295.462 C 268.847 295.690,267.872 292.751,267.218 289.861 C 266.872 288.333,266.281 286.271,265.904 285.278 C 265.121 283.216,264.680 278.889,265.253 278.889 C 265.662 278.889,266.262 280.303,266.521 281.876 C 266.774 283.411,267.222 283.121,267.222 281.424 C 267.222 279.749,266.825 277.485,265.973 274.306 C 261.895 259.082,261.648 256.845,263.827 254.908 C 264.847 254.001,267.758 253.325,268.497 253.824 M163.611 255.271 C 165.368 255.734,168.431 256.556,170.417 257.098 L 174.028 258.082 171.111 257.931 C 167.899 257.764,164.312 257.006,158.611 255.289 L 154.861 254.159 157.639 254.294 C 159.467 254.383,161.509 254.717,163.611 255.271 M249.091 257.976 C 249.510 258.618,249.588 259.436,249.614 263.463 C 249.648 268.769,250.134 291.066,250.546 306.250 C 250.695 311.750,250.930 316.813,251.069 317.500 C 251.873 321.488,251.770 321.421,249.168 316.250 C 247.784 313.500,245.834 309.313,244.835 306.944 C 243.835 304.576,242.518 301.536,241.906 300.189 C 240.173 296.368,239.665 294.760,240.317 295.163 C 240.775 295.446,244.199 302.707,245.415 305.972 C 246.455 308.766,247.741 311.496,247.765 310.964 C 247.790 310.399,244.513 300.943,243.818 299.574 C 243.427 298.805,242.790 296.930,242.403 295.407 C 241.161 290.530,239.834 286.706,236.669 278.889 C 234.968 274.688,233.097 270.000,232.510 268.472 C 231.924 266.944,231.122 264.944,230.729 264.028 C 229.210 260.491,229.784 259.725,234.190 259.407 C 236.930 259.209,246.313 257.646,246.644 257.332 C 247.109 256.890,248.646 257.295,249.091 257.976 M262.367 266.111 C 262.496 269.289,262.445 271.419,262.200 273.056 C 261.969 274.596,261.818 279.472,261.766 287.083 C 261.563 316.620,261.187 325.504,260.215 323.768 C 259.903 323.210,260.309 296.369,260.810 284.444 C 260.941 281.313,261.050 277.813,261.051 276.667 C 261.053 274.262,261.570 259.930,261.662 259.722 C 261.881 259.228,262.209 262.199,262.367 266.111 M263.346 277.116 C 263.498 277.515,263.740 278.985,263.885 280.382 C 264.150 282.934,266.161 291.504,267.211 294.551 C 268.138 297.243,268.711 317.345,267.939 320.055 C 267.564 321.367,266.488 321.845,265.520 321.129 L 264.717 320.535 264.095 321.170 C 263.752 321.520,263.254 322.118,262.988 322.500 C 262.598 323.060,262.376 278.078,262.761 276.458 C 262.827 276.183,263.114 276.507,263.346 277.116 M75.972 288.248 C 75.667 288.319,73.854 288.800,71.944 289.318 C 70.035 289.836,67.785 290.343,66.944 290.444 C 64.383 290.752,63.438 292.331,63.668 295.915 C 63.967 300.567,65.417 302.114,69.203 301.818 C 76.706 301.231,79.187 298.485,76.253 294.017 C 74.307 291.055,74.255 289.574,76.062 288.620 C 77.072 288.086,77.051 287.999,75.972 288.248 M378.333 288.568 C 378.333 289.289,375.163 290.958,371.667 292.077 C 370.368 292.493,368.584 293.071,367.703 293.363 C 366.821 293.654,364.446 294.207,362.425 294.591 C 360.404 294.976,356.688 295.785,354.167 296.389 C 344.865 298.619,336.312 300.251,326.610 301.648 C 320.864 302.475,319.007 303.512,318.259 306.310 L 317.926 307.554 316.532 307.370 C 314.859 307.149,299.161 303.191,293.889 301.661 C 291.826 301.062,288.449 300.200,286.383 299.744 C 284.318 299.289,281.693 298.610,280.550 298.236 C 277.131 297.115,279.605 297.337,284.641 298.602 C 287.054 299.209,292.561 300.526,296.880 301.531 C 301.198 302.535,305.948 303.741,307.435 304.210 C 310.896 305.301,314.206 305.580,315.014 304.848 C 315.439 304.464,315.645 304.423,315.895 304.673 C 316.516 305.294,317.001 304.990,319.537 302.387 C 321.675 300.193,322.262 299.743,323.195 299.585 C 325.000 299.277,332.502 297.314,334.738 296.563 C 335.875 296.182,338.089 295.674,339.659 295.435 C 341.228 295.197,344.603 294.497,347.159 293.881 C 349.714 293.264,353.931 292.325,356.528 291.794 C 359.125 291.263,361.875 290.650,362.639 290.433 C 363.851 290.088,370.550 288.847,372.917 288.529 C 374.546 288.310,378.333 288.337,378.333 288.568 M71.285 291.696 C 73.103 293.394,73.319 295.626,71.813 297.132 C 70.588 298.356,70.224 298.141,70.405 296.299 L 70.546 294.861 70.105 296.456 C 69.628 298.179,68.991 298.384,69.304 296.714 C 69.572 295.286,70.214 294.168,70.771 294.158 C 71.402 294.146,70.569 293.460,69.212 292.873 C 67.954 292.329,67.500 292.736,67.500 294.405 L 67.500 295.686 66.320 294.506 C 63.845 292.031,68.701 289.282,71.285 291.696 M386.111 294.444 C 386.461 294.671,386.444 294.714,386.006 294.718 C 385.421 294.723,378.754 296.232,373.056 297.649 C 370.993 298.162,367.931 298.829,366.250 299.132 C 364.569 299.434,362.819 299.824,362.361 299.999 C 361.333 300.392,352.781 302.467,346.806 303.773 C 344.361 304.308,340.111 305.292,337.361 305.961 C 334.611 306.630,330.361 307.638,327.917 308.200 C 325.472 308.762,322.305 309.522,320.878 309.889 C 317.557 310.742,317.089 310.730,313.144 309.690 C 311.338 309.213,308.299 308.464,306.389 308.023 C 300.472 306.660,298.192 305.882,298.681 305.393 C 298.832 305.242,308.015 307.503,311.528 308.556 C 314.858 309.554,319.178 309.627,321.111 308.717 C 321.799 308.393,322.924 308.045,323.611 307.943 C 325.161 307.712,337.532 304.909,341.111 303.976 C 342.563 303.598,344.625 303.105,345.694 302.881 C 351.080 301.750,363.000 299.036,365.694 298.327 C 367.375 297.885,370.875 297.065,373.472 296.506 C 376.069 295.946,378.757 295.263,379.444 294.988 C 380.132 294.713,380.882 294.426,381.111 294.349 C 381.868 294.097,385.686 294.170,386.111 294.444 M68.003 298.056 L 67.990 299.028 67.778 298.194 C 67.460 296.947,67.460 295.789,67.778 296.528 C 67.909 296.833,68.011 297.521,68.003 298.056 M351.534 319.347 C 351.047 321.042,350.431 322.222,350.031 322.222 C 349.776 322.222,350.551 319.223,351.128 317.979 C 351.756 316.621,352.041 317.579,351.534 319.347 M282.677 330.288 C 288.927 331.899,294.693 334.118,292.731 334.157 C 291.901 334.174,288.787 333.320,287.222 332.646 C 286.382 332.285,283.819 331.592,281.528 331.106 C 276.994 330.145,276.700 330.048,277.262 329.692 C 277.927 329.270,279.330 329.425,282.677 330.288 M244.792 336.573 C 244.034 336.878,244.435 338.142,245.662 339.318 C 247.673 341.245,249.691 342.059,252.572 342.105 C 255.412 342.151,256.006 342.476,262.082 347.306 C 265.783 350.250,265.791 350.251,266.571 347.965 C 267.318 345.771,267.247 342.438,266.415 340.737 C 265.227 338.305,263.750 337.892,259.836 338.898 C 254.729 340.210,247.806 339.183,245.847 336.822 C 245.471 336.369,245.361 336.343,244.792 336.573 M174.722 343.557 C 174.722 345.073,177.395 346.735,181.327 347.666 L 184.028 348.306 187.693 347.778 C 191.981 347.160,193.458 346.545,194.049 345.131 C 194.648 343.697,194.533 343.578,193.524 344.588 C 190.208 347.903,181.088 347.686,175.978 344.171 C 175.287 343.695,174.722 343.419,174.722 343.557 M189.028 349.313 C 188.722 349.365,186.753 349.618,184.653 349.876 C 181.018 350.322,180.272 350.559,181.283 350.946 C 181.757 351.128,181.758 350.989,181.226 356.199 L 181.032 358.093 182.252 359.346 C 186.034 363.232,188.859 363.332,191.331 359.669 C 193.173 356.939,193.762 356.440,193.545 357.793 C 192.803 362.408,187.701 364.500,183.765 361.806 C 180.986 359.903,180.441 360.207,182.811 362.338 C 184.537 363.890,184.969 364.011,188.021 363.803 C 193.946 363.399,197.901 360.771,197.715 357.361 C 197.577 354.837,196.539 355.571,195.002 359.279 C 194.692 360.028,194.365 360.568,194.275 360.479 C 194.034 360.237,194.647 357.629,195.227 356.428 C 195.598 355.661,195.656 355.260,195.446 354.926 C 194.986 354.197,195.465 354.023,197.732 354.095 L 199.861 354.163 199.082 353.470 C 198.055 352.558,197.021 352.581,193.823 353.588 C 190.022 354.786,188.700 354.896,186.986 354.158 C 184.376 353.035,184.328 352.282,186.899 352.813 C 189.007 353.248,191.728 352.873,195.380 351.642 C 197.125 351.054,198.242 350.830,198.958 350.923 C 200.561 351.131,200.475 350.627,198.829 350.164 C 196.242 349.436,194.961 349.362,193.608 349.863 C 191.024 350.819,189.142 351.131,186.440 351.052 C 182.219 350.927,184.223 350.278,188.828 350.278 C 191.985 350.278,192.298 350.235,191.915 349.852 C 191.479 349.416,190.022 349.144,189.028 349.313 " stroke="none" fill="#000000" fill-rule="evenodd"></path></g></svg>